<?xml version="1.0" encoding="UTF-8" standalone="no"?>
<!-- Created with Inkscape (http://www.inkscape.org/) -->

<svg
   width="90"
   height="90"
   viewBox="0 0 23.812499 23.8125"
   version="1.1"
   id="svg439"
   inkscape:version="1.4 (86a8ad7, 2024-10-11)"
   sodipodi:docname="icon.svg"
   inkscape:export-filename="icon-large.png"
   inkscape:export-xdpi="597.33002"
   inkscape:export-ydpi="597.33002"
   xmlns:inkscape="http://www.inkscape.org/namespaces/inkscape"
   xmlns:sodipodi="http://sodipodi.sourceforge.net/DTD/sodipodi-0.dtd"
   xmlns="http://www.w3.org/2000/svg"
   xmlns:svg="http://www.w3.org/2000/svg">
  <sodipodi:namedview
     id="namedview441"
     pagecolor="#505050"
     bordercolor="#ffffff"
     borderopacity="1"
     inkscape:showpageshadow="0"
     inkscape:pageopacity="0"
     inkscape:pagecheckerboard="1"
     inkscape:deskcolor="#505050"
     inkscape:document-units="mm"
     showgrid="false"
     inkscape:zoom="7.319248"
     inkscape:cx="104.72387"
     inkscape:cy="48.843816"
     inkscape:window-width="3840"
     inkscape:window-height="1529"
     inkscape:window-x="1432"
     inkscape:window-y="487"
     inkscape:window-maximized="1"
     inkscape:current-layer="layer1" />
  <defs
     id="defs436" />
  <g
     inkscape:label="Layer 1"
     inkscape:groupmode="layer"
     id="layer1">
    <path
       id="path76489"
       style="display:inline;fill:#a11800;fill-opacity:1;stroke:#ffffff;stroke-width:0.529167;stroke-linecap:square;stroke-linejoin:miter;stroke-miterlimit:4;stroke-dasharray:none;stroke-opacity:1"
       d="m 2.935675,22.76542 c 1.0462429,1.046243 2.7308085,1.046243 3.7770515,0 l 8.8226025,-8.822593 -1e-5,5.988701 c 0,1.47961 1.191257,2.670858 2.670868,2.670858 h 2.670485 c 1.479611,0 2.670869,-1.191258 2.670869,-2.670868 l 3.74e-4,-16.9956391 -3.84e-4,-3.735e-4 c 0,-0.092363 -0.005,-0.1834436 -0.01363,-0.2733232 0,-1.312e-4 -4.34e-4,-3.129e-4 -3.64e-4,-3.836e-4 -0.0091,-0.089839 -0.02211,-0.1786185 -0.03987,-0.2655606 -4.1e-5,-1.413e-4 -4.34e-4,-3.23e-4 -3.84e-4,-3.836e-4 -0.01767,-0.086912 -0.03937,-0.1720168 -0.06531,-0.2556178 -4e-5,-1.413e-4 -2.42e-4,-1.312e-4 -3.73e-4,-3.734e-4 -0.02594,-0.083581 -0.05562,-0.1658493 -0.08923,-0.2456547 -5e-5,-1.413e-4 -2.22e-4,-1.514e-4 -3.73e-4,-3.835e-4 -0.03382,-0.080048 -0.07137,-0.1576123 -0.112531,-0.2334407 -0.04088,-0.075405 -0.08499,-0.1491431 -0.132771,-0.2198537 -1.01e-4,-1.514e-4 -2.22e-4,-1.716e-4 -3.83e-4,-3.734e-4 -0.04785,-0.070862 -0.09923,-0.1393215 -0.153423,-0.205106 C 22.884379,1.1691355 22.827094,1.1055617 22.76663,1.0450968 22.283918,0.56256943 21.616614,0.26496951 20.876995,0.26496951 l -3.73e-4,-3.8358e-4 -16.995647,3.7349e-4 c -1.4796111,0 -2.6708585,1.19124758 -2.6708686,2.67086898 l 1.01e-5,2.6704854 c 0,1.4796112 1.1912474,2.6708689 2.6708585,2.6708689 H 9.8696756 L 1.0470735,17.099786 c -1.0462430112,1.046243 -1.04623291691,2.730808 1.01e-5,3.777052 z" />
    <path
       id="path123842-0"
       style="display:inline;fill:#1835b6;fill-opacity:0;stroke:#ffffff;stroke-width:1.05833;stroke-linecap:square;stroke-linejoin:miter;stroke-miterlimit:4;stroke-dasharray:none;stroke-opacity:1"
       d="m 3.2147454,22.65366 c 0.7691994,0.723402 2.0274922,0.830857 2.9067195,0.245013 0.4782231,-0.325655 0.8390823,-0.78987 1.2608493,-1.18111 2.8072688,-2.806562 5.6145398,-5.613126 8.4218088,-8.419688 0.0035,2.262611 -0.0072,4.525549 0.0053,6.787954 0.04914,1.060201 0.888194,2.01505 1.933388,2.20018 0.570359,0.09023 1.151907,0.02538 1.726954,0.04505 0.593448,-0.01509 1.190449,0.03264 1.781514,-0.02876 1.045811,-0.145369 1.918726,-1.057483 2.014653,-2.109349 0.03414,-0.854563 0.0051,-1.71159 0.01478,-2.567094 -0.0023,-4.938896 0.0051,-9.8779173 -0.0033,-14.8167366 C 23.238631,1.758712 22.427301,0.80159628 21.396427,0.59333625 20.822733,0.485762 20.234447,0.55872041 19.654421,0.53730597 14.356472,0.53938446 9.05843,0.53360304 3.7605403,0.54059522 2.7070629,0.57549862 1.7458874,1.3890839 1.5375568,2.4218681 1.4306181,2.9813953 1.5031825,3.5557183 1.4818576,4.1216239 c 0.014291,0.6113232 -0.030196,1.2258044 0.025342,1.8350807 0.1324902,1.0556912 1.0498491,1.9426838 2.1096321,2.0400941 0.820566,0.03598 1.6437681,0.00545 2.4653403,0.015589 1.478381,2.1e-6 2.956763,1e-6 4.435145,1e-6 -3.1192162,3.1214273 -6.2444808,6.2370583 -9.3599821,9.3620483 -0.72236115,0.768954 -0.82869632,2.026051 -0.24336996,2.904233 0.32603376,0.477897 0.79012266,0.838837 1.18154116,1.26045 0.3738297,0.37074 0.7418261,0.747489 1.1192436,1.114539 z" />
  </g>
</svg>
