<?xml version="1.0" encoding="UTF-8" standalone="no"?>
<!-- Created with Inkscape (http://www.inkscape.org/) -->

<svg
   width="90"
   height="90"
   viewBox="0 0 23.812499 23.8125"
   version="1.1"
   id="svg439"
   inkscape:version="1.2 (dc2aedaf03, 2022-05-15)"
   sodipodi:docname="icon.svg"
   xmlns:inkscape="http://www.inkscape.org/namespaces/inkscape"
   xmlns:sodipodi="http://sodipodi.sourceforge.net/DTD/sodipodi-0.dtd"
   xmlns="http://www.w3.org/2000/svg"
   xmlns:svg="http://www.w3.org/2000/svg">
  <sodipodi:namedview
     id="namedview441"
     pagecolor="#505050"
     bordercolor="#ffffff"
     borderopacity="1"
     inkscape:showpageshadow="0"
     inkscape:pageopacity="0"
     inkscape:pagecheckerboard="1"
     inkscape:deskcolor="#505050"
     inkscape:document-units="mm"
     showgrid="false"
     inkscape:zoom="7.319248"
     inkscape:cx="8.4025025"
     inkscape:cy="74.187949"
     inkscape:window-width="3840"
     inkscape:window-height="1537"
     inkscape:window-x="-8"
     inkscape:window-y="430"
     inkscape:window-maximized="1"
     inkscape:current-layer="layer1" />
  <defs
     id="defs436" />
  <g
     inkscape:label="Layer 1"
     inkscape:groupmode="layer"
     id="layer1">
    <path
       id="path76489"
       style="display:inline;fill:#a11800;fill-opacity:1;stroke:#ffffff;stroke-width:0.529167;stroke-linecap:square;stroke-linejoin:miter;stroke-miterlimit:4;stroke-dasharray:none;stroke-opacity:1"
       d="m 2.935675,22.76542 c 1.0462429,1.046243 2.7308085,1.046243 3.7770515,0 l 8.8226025,-8.822593 -1e-5,5.988701 c 0,1.47961 1.191257,2.670858 2.670868,2.670858 h 2.670485 c 1.479611,0 2.670869,-1.191258 2.670869,-2.670868 l 3.74e-4,-16.9956391 -3.84e-4,-3.735e-4 c 0,-0.092363 -0.005,-0.1834436 -0.01363,-0.2733232 0,-1.312e-4 -4.34e-4,-3.129e-4 -3.64e-4,-3.836e-4 -0.0091,-0.089839 -0.02211,-0.1786185 -0.03987,-0.2655606 -4.1e-5,-1.413e-4 -4.34e-4,-3.23e-4 -3.84e-4,-3.836e-4 -0.01767,-0.086912 -0.03937,-0.1720168 -0.06531,-0.2556178 -4e-5,-1.413e-4 -2.42e-4,-1.312e-4 -3.73e-4,-3.734e-4 -0.02594,-0.083581 -0.05562,-0.1658493 -0.08923,-0.2456547 -5e-5,-1.413e-4 -2.22e-4,-1.514e-4 -3.73e-4,-3.835e-4 -0.03382,-0.080048 -0.07137,-0.1576123 -0.112531,-0.2334407 -0.04088,-0.075405 -0.08499,-0.1491431 -0.132771,-0.2198537 -1.01e-4,-1.514e-4 -2.22e-4,-1.716e-4 -3.83e-4,-3.734e-4 -0.04785,-0.070862 -0.09923,-0.1393215 -0.153423,-0.205106 C 22.884379,1.1691355 22.827094,1.1055617 22.76663,1.0450968 22.283918,0.56256943 21.616614,0.26496951 20.876995,0.26496951 l -3.73e-4,-3.8358e-4 -16.995647,3.7349e-4 c -1.4796111,0 -2.6708585,1.19124758 -2.6708686,2.67086898 l 1.01e-5,2.6704854 c 0,1.4796112 1.1912474,2.6708689 2.6708585,2.6708689 H 9.8696756 L 1.0470735,17.099786 c -1.0462430112,1.046243 -1.04623291691,2.730808 1.01e-5,3.777052 z" />
  </g>
</svg>
