<?xml version="1.0" encoding="UTF-8" standalone="no"?>
<!-- Created with Inkscape (http://www.inkscape.org/) -->

<svg
   width="112"
   height="112"
   viewBox="0 0 29.633332 29.633333"
   version="1.1"
   id="svg439"
   inkscape:version="1.4 (86a8ad7, 2024-10-11)"
   sodipodi:docname="icon-macos.svg"
   xmlns:inkscape="http://www.inkscape.org/namespaces/inkscape"
   xmlns:sodipodi="http://sodipodi.sourceforge.net/DTD/sodipodi-0.dtd"
   xmlns="http://www.w3.org/2000/svg"
   xmlns:svg="http://www.w3.org/2000/svg">
  <sodipodi:namedview
     id="namedview441"
     pagecolor="#505050"
     bordercolor="#ffffff"
     borderopacity="1"
     inkscape:showpageshadow="0"
     inkscape:pageopacity="0"
     inkscape:pagecheckerboard="1"
     inkscape:deskcolor="#505050"
     inkscape:document-units="px"
     showgrid="false"
     inkscape:zoom="7.319248"
     inkscape:cx="54.991988"
     inkscape:cy="64.96569"
     inkscape:window-width="3840"
     inkscape:window-height="1529"
     inkscape:window-x="1432"
     inkscape:window-y="487"
     inkscape:window-maximized="1"
     inkscape:current-layer="layer1" />
  <defs
     id="defs436" />
  <g
     inkscape:label="Layer 1"
     inkscape:groupmode="layer"
     id="layer1">
    <path
       id="path76489"
       style="display:inline;fill:#a11800;fill-opacity:1;stroke:#ffffff;stroke-width:0.529167;stroke-linecap:square;stroke-linejoin:miter;stroke-miterlimit:4;stroke-dasharray:none;stroke-opacity:1"
       d="m 5.8460912,25.675837 c 1.0462429,1.046243 2.7308085,1.046243 3.7770515,0 l 8.8226023,-8.822593 -10e-6,5.988701 c 0,1.47961 1.191257,2.670858 2.670868,2.670858 h 2.670485 c 1.479611,0 2.670869,-1.191258 2.670869,-2.670868 l 3.74e-4,-16.9956395 -3.84e-4,-3.735e-4 c 0,-0.092363 -0.005,-0.1834436 -0.01363,-0.2733232 0,-1.312e-4 -4.34e-4,-3.129e-4 -3.64e-4,-3.836e-4 -0.0091,-0.089839 -0.02211,-0.1786185 -0.03987,-0.2655606 -4.1e-5,-1.413e-4 -4.34e-4,-3.23e-4 -3.84e-4,-3.836e-4 -0.01767,-0.086912 -0.03937,-0.1720168 -0.06531,-0.2556178 -4e-5,-1.413e-4 -2.42e-4,-1.312e-4 -3.73e-4,-3.734e-4 -0.02594,-0.083581 -0.05562,-0.1658493 -0.08923,-0.2456547 -5e-5,-1.413e-4 -2.22e-4,-1.514e-4 -3.73e-4,-3.835e-4 -0.03382,-0.080048 -0.07137,-0.1576123 -0.112531,-0.2334407 -0.04088,-0.075405 -0.08499,-0.1491431 -0.132771,-0.2198537 -1.01e-4,-1.514e-4 -2.22e-4,-1.716e-4 -3.83e-4,-3.734e-4 -0.04785,-0.070862 -0.09923,-0.1393215 -0.153423,-0.205106 C 25.794795,4.0795521 25.73751,4.0159783 25.677046,3.9555134 25.194334,3.472986 24.52703,3.1753861 23.787411,3.1753861 L 23.787038,3.1750025 6.7913912,3.175376 c -1.4796111,0 -2.6708585,1.1912476 -2.6708686,2.670869 l 1.01e-5,2.6704854 c 0,1.4796112 1.1912474,2.6708686 2.6708585,2.6708686 h 5.9887008 l -8.8226023,8.822604 c -1.046243,1.046243 -1.0462329,2.730808 1.01e-5,3.777052 z" />
    <path
       id="path123842-0"
       style="display:inline;fill:#1835b6;fill-opacity:0;stroke:#ffffff;stroke-width:1.05833;stroke-linecap:square;stroke-linejoin:miter;stroke-miterlimit:4;stroke-dasharray:none;stroke-opacity:1"
       d="m 6.1251682,25.564078 c 0.7691993,0.723402 2.0274919,0.830857 2.9067195,0.245013 0.478222,-0.325654 0.8390821,-0.78987 1.2608493,-1.181109 2.807268,-2.806564 5.614538,-5.613126 8.421806,-8.419689 0.0035,2.262611 -0.0072,4.525549 0.0053,6.787953 0.04914,1.060202 0.888194,2.015051 1.933387,2.200181 0.570359,0.09023 1.151906,0.02539 1.726955,0.04505 0.593446,-0.01509 1.190448,0.03264 1.781512,-0.02876 1.045812,-0.14537 1.918725,-1.057482 2.014652,-2.10935 0.03414,-0.854563 0.0051,-1.711591 0.01478,-2.567093 -0.0023,-4.938897 0.0051,-9.877918 -0.0033,-14.8167378 C 26.149048,4.6691287 25.337719,3.712013 24.306845,3.5037529 23.733151,3.3961787 23.144865,3.469137 22.564839,3.4477226 17.266891,3.4498011 11.96885,3.4440197 6.6709617,3.4510118 5.6174886,3.4859193 4.6563133,4.2995046 4.4479827,5.3322886 4.341044,5.8918158 4.4136084,6.4661387 4.3922734,7.0320442 4.406564,7.6433674 4.3620773,8.2578485 4.4176151,8.8671254 4.5501043,9.9228163 5.467463,10.80981 6.5272458,10.90722 c 0.8205669,0.03598 1.6437688,0.0054 2.4653396,0.01559 1.4783806,2e-6 2.9567626,10e-7 4.4351456,10e-7 -3.119217,3.121427 -6.2444808,6.237058 -9.3599805,9.362048 -0.722362,0.768954 -0.8286971,2.026051 -0.2433699,2.904232 0.3260337,0.477899 0.7901235,0.838837 1.1815429,1.260449 0.3738428,0.370725 0.741826,0.747489 1.1192434,1.114538 z" />
  </g>
</svg>
