<?xml version="1.0" encoding="UTF-8" standalone="no"?>
<!-- Created with Inkscape (http://www.inkscape.org/) -->

<svg
   width="192"
   height="16"
   viewBox="0 0 50.799999 4.2333333"
   version="1.1"
   id="svg2024"
   inkscape:version="1.2 (dc2aedaf03, 2022-05-15)"
   sodipodi:docname="icons.svg"
   xmlns:inkscape="http://www.inkscape.org/namespaces/inkscape"
   xmlns:sodipodi="http://sodipodi.sourceforge.net/DTD/sodipodi-0.dtd"
   xmlns="http://www.w3.org/2000/svg"
   xmlns:svg="http://www.w3.org/2000/svg">
  <sodipodi:namedview
     id="namedview2026"
     pagecolor="#505050"
     bordercolor="#ffffff"
     borderopacity="1"
     inkscape:showpageshadow="0"
     inkscape:pageopacity="0"
     inkscape:pagecheckerboard="1"
     inkscape:deskcolor="#505050"
     inkscape:document-units="mm"
     showgrid="true"
     inkscape:zoom="2.8284271"
     inkscape:cx="148.84598"
     inkscape:cy="45.785164"
     inkscape:window-width="1918"
     inkscape:window-height="1528"
     inkscape:window-x="1913"
     inkscape:window-y="491"
     inkscape:window-maximized="0"
     inkscape:current-layer="layer1">
    <inkscape:grid
       type="xygrid"
       id="grid3789"
       spacingx="4.2333333"
       spacingy="4.2333333"
       empspacing="1"
       originx="0"
       originy="0"
       color="#ffffff"
       opacity="0.1254902"
       empcolor="#ffffff"
       empopacity="0.25098039" />
  </sodipodi:namedview>
  <defs
     id="defs2021">
    <inkscape:path-effect
       effect="fillet_chamfer"
       id="path-effect151386"
       is_visible="true"
       lpeversion="1"
       nodesatellites_param="F,0,1,1,1,4,0,1 @ F,0,1,1,1,4,0,1 @ F,0,1,1,1,4,0,1 @ F,0,1,1,1,4,0,1 @ F,0,1,1,1,4,0,1 @ F,0,0,1,1,2,0,1 @ F,0,0,1,1,2,0,1 @ F,0,0,1,1,2,0,1 @ F,0,0,1,1,2,0,1 @ F,0,0,1,1,2,0,1 @ F,0,0,1,1,2,0,1 @ F,0,1,1,1,4,0,1 @ F,0,1,1,1,4,0,1 @ F,0,1,1,1,4,0,1"
       unit="px"
       method="auto"
       mode="F"
       radius="4"
       chamfer_steps="1"
       flexible="false"
       use_knot_distance="true"
       apply_no_radius="true"
       apply_with_radius="true"
       only_selected="true"
       hide_knots="true" />
    <inkscape:path-effect
       effect="fillet_chamfer"
       id="path-effect151386-9"
       is_visible="true"
       lpeversion="1"
       nodesatellites_param="F,0,1,1,1,4,0,1 @ F,0,1,1,1,4,0,1 @ F,0,1,1,1,4,0,1 @ F,0,1,1,1,4,0,1 @ F,0,1,1,1,4,0,1 @ F,0,0,1,1,2,0,1 @ F,0,0,1,1,2,0,1 @ F,0,0,1,1,2,0,1 @ F,0,0,1,1,2,0,1 @ F,0,0,1,1,2,0,1 @ F,0,0,1,1,2,0,1 @ F,0,1,1,1,4,0,1 @ F,0,1,1,1,4,0,1 @ F,0,1,1,1,4,0,1"
       unit="px"
       method="auto"
       mode="F"
       radius="4"
       chamfer_steps="1"
       flexible="false"
       use_knot_distance="true"
       apply_no_radius="true"
       apply_with_radius="true"
       only_selected="true"
       hide_knots="true" />
    <inkscape:path-effect
       effect="fillet_chamfer"
       id="path-effect151386-9-2"
       is_visible="true"
       lpeversion="1"
       nodesatellites_param="F,0,1,1,1,4,0,1 @ F,0,1,1,1,4,0,1 @ F,0,1,1,1,4,0,1 @ F,0,1,1,1,4,0,1 @ F,0,1,1,1,4,0,1 @ F,0,0,1,1,2,0,1 @ F,0,0,1,1,2,0,1 @ F,0,0,1,1,2,0,1 @ F,0,0,1,1,2,0,1 @ F,0,0,1,1,2,0,1 @ F,0,0,1,1,2,0,1 @ F,0,1,1,1,4,0,1 @ F,0,1,1,1,4,0,1 @ F,0,1,1,1,4,0,1"
       unit="px"
       method="auto"
       mode="F"
       radius="4"
       chamfer_steps="1"
       flexible="false"
       use_knot_distance="true"
       apply_no_radius="true"
       apply_with_radius="true"
       only_selected="true"
       hide_knots="true" />
    <inkscape:path-effect
       effect="fillet_chamfer"
       id="path-effect151386-9-8"
       is_visible="true"
       lpeversion="1"
       nodesatellites_param="F,0,1,1,1,4,0,1 @ F,0,1,1,1,4,0,1 @ F,0,1,1,1,4,0,1 @ F,0,1,1,1,4,0,1 @ F,0,1,1,1,4,0,1 @ F,0,0,1,1,2,0,1 @ F,0,0,1,1,2,0,1 @ F,0,0,1,1,2,0,1 @ F,0,0,1,1,2,0,1 @ F,0,0,1,1,2,0,1 @ F,0,0,1,1,2,0,1 @ F,0,1,1,1,4,0,1 @ F,0,1,1,1,4,0,1 @ F,0,1,1,1,4,0,1"
       unit="px"
       method="auto"
       mode="F"
       radius="4"
       chamfer_steps="1"
       flexible="false"
       use_knot_distance="true"
       apply_no_radius="true"
       apply_with_radius="true"
       only_selected="true"
       hide_knots="true" />
    <inkscape:path-effect
       effect="fillet_chamfer"
       id="path-effect151386-9-0"
       is_visible="true"
       lpeversion="1"
       nodesatellites_param="F,0,1,1,1,4,0,1 @ F,0,1,1,1,4,0,1 @ F,0,1,1,1,4,0,1 @ F,0,1,1,1,4,0,1 @ F,0,1,1,1,4,0,1 @ F,0,0,1,1,2,0,1 @ F,0,0,1,1,2,0,1 @ F,0,0,1,1,2,0,1 @ F,0,0,1,1,2,0,1 @ F,0,0,1,1,2,0,1 @ F,0,0,1,1,2,0,1 @ F,0,1,1,1,4,0,1 @ F,0,1,1,1,4,0,1 @ F,0,1,1,1,4,0,1"
       unit="px"
       method="auto"
       mode="F"
       radius="4"
       chamfer_steps="1"
       flexible="false"
       use_knot_distance="true"
       apply_no_radius="true"
       apply_with_radius="true"
       only_selected="true"
       hide_knots="true" />
    <inkscape:path-effect
       effect="fillet_chamfer"
       id="path-effect150875"
       is_visible="true"
       lpeversion="1"
       nodesatellites_param="F,0,0,1,0,2,0,1 @ F,0,0,1,0,2,0,1 @ F,0,0,1,0,2,0,1 @ F,0,0,1,0,2,0,1 @ F,0,0,1,0,2,0,1 @ F,0,0,1,0,2,0,1 @ F,0,0,1,0,2,0,1 @ F,0,0,1,0,2,0,1"
       unit="px"
       method="auto"
       mode="F"
       radius="2"
       chamfer_steps="1"
       flexible="false"
       use_knot_distance="true"
       apply_no_radius="true"
       apply_with_radius="true"
       only_selected="false"
       hide_knots="false" />
  </defs>
  <g
     inkscape:label="Layer 1"
     inkscape:groupmode="layer"
     id="layer1">
    <path
       id="path76489"
       style="display:inline;fill:#ffffff;fill-opacity:1;stroke:#ffffff;stroke-width:0;stroke-linecap:square;stroke-linejoin:miter;stroke-miterlimit:4;stroke-dasharray:none;stroke-opacity:1"
       d="m 3.9687441,1.9483042 c 0,-0.1865329 -0.1501743,-0.3367022 -0.3367134,-0.3367022 H 2.0590137 L 2.5928885,1.077745 c 0.131903,-0.1318988 0.131903,-0.34428494 0,-0.47618365 L 2.3548216,0.36350248 c -0.131903,-0.13189867 -0.3442964,-0.13189867 -0.4761994,0 L 0.36347758,1.8785304 v 6.73e-5 c -0.00822,0.00823 -0.015946,0.016761 -0.023148,0.025581 -1.05e-5,1.24e-5 9.9e-6,6.74e-5 -5e-7,6.74e-5 -0.0072,0.00881 -0.01395,0.017896 -0.020124,0.027227 -9.6e-6,1.48e-5 9.3e-6,6.73e-5 0,6.73e-5 -0.00617,0.00933 -0.011825,0.018847 -0.016968,0.028606 -8.8e-6,1.65e-5 9.3e-6,3.37e-5 0,6.73e-5 -0.00515,0.00976 -0.00983,0.019745 -0.013942,0.029856 -7.5e-6,1.85e-5 7.5e-6,3.36e-5 0,6.72e-5 -0.00413,0.010152 -0.00769,0.020415 -0.010786,0.030842 -0.00309,0.010366 -0.0057,0.020875 -0.00775,0.031434 -4.3e-6,2.09e-5 3.7e-6,3.38e-5 0,6.73e-5 -0.00205,0.01058 -0.00358,0.021262 -0.0046,0.031962 -0.00104,0.01074 -0.00157,0.021508 -0.00157,0.032289 1.7e-5,0.086045 0.032975,0.1720606 0.09891,0.2379933 l -6e-7,6.73e-5 1.51514032,1.5150284 c 0.1319029,0.1318986 0.3442961,0.131899 0.4761994,0 L 2.5928881,3.6317599 c 0.1319029,-0.1318982 0.1319029,-0.344285 0,-0.4761833 L 2.059013,2.6217194 H 3.63203 c 0.1865391,0 0.3367135,-0.1501695 0.3367135,-0.336702 z" />
    <path
       id="path76489-8"
       style="display:inline;fill:#ffffff;fill-opacity:1;stroke:#ffffff;stroke-width:0;stroke-linecap:square;stroke-linejoin:miter;stroke-miterlimit:4;stroke-dasharray:none;stroke-opacity:1"
       d="m 26.325898,3.5452655 c 0.131898,0.1318987 0.344274,0.1318947 0.476177,-8.3e-6 l 1.112291,-1.112291 -1.3e-5,0.7550005 c -3e-6,0.1865361 0.150177,0.3367158 0.336713,0.3367128 l 0.336672,-5.8e-6 c 0.186536,-3e-6 0.33672,-0.1501876 0.336723,-0.3367235 l 8.3e-5,-2.1426559 -4.8e-5,-4.76e-5 c -2.1e-5,-0.011618 -5.73e-4,-0.02313 -0.0017,-0.034458 -1e-6,-1.58e-5 -5.4e-5,-4.06e-5 -4.7e-5,-4.77e-5 -0.0011,-0.011321 -0.0028,-0.022518 -0.005,-0.033479 -3e-6,-1.76e-5 -5.4e-5,-4.13e-5 -4.7e-5,-4.76e-5 -0.0022,-0.010981 -0.005,-0.021692 -0.0082,-0.032227 -5e-6,-1.81e-5 -3e-5,-1.75e-5 -4.8e-5,-4.76e-5 -0.0033,-0.0105076 -0.007,-0.0208915 -0.01125,-0.0309685 -7e-6,-1.874e-5 -2.9e-5,-1.881e-5 -4.7e-5,-4.751e-5 -0.0043,-0.0100777 -0.009,-0.0198803 -0.01418,-0.0294383 -0.0051,-0.009522 -0.01073,-0.0187914 -0.01678,-0.0276719 -1.1e-5,-1.832e-5 -2.6e-5,-2.178e-5 -4.7e-5,-4.759e-5 C 28.86115,0.8478 28.85466,0.8391859 28.8478,0.8309128 28.8409,0.8226118 28.83372,0.814573 28.8261,0.8069497 28.76524,0.7461187 28.681115,0.7086049 28.587874,0.708603 l -4.7e-5,-4.83e-5 -2.142653,7.891e-5 c -0.186536,3.12e-6 -0.336721,0.15018736 -0.336724,0.33672419 l 7e-6,0.3366609 c -2e-6,0.1865349 0.150178,0.3367151 0.336713,0.3367124 l 0.755014,-2.6e-5 -1.112291,1.112291 c -0.131904,0.1319037 -0.131907,0.3442786 -9e-6,0.476177 z" />
    <path
       id="path76489-6"
       style="display:inline;fill:#ffffff;fill-opacity:1;stroke:#ffffff;stroke-width:0;stroke-linecap:square;stroke-linejoin:miter;stroke-miterlimit:4;stroke-dasharray:none;stroke-opacity:1"
       d="m 24.712061,3.3072606 c 0.131898,-0.1318987 0.131895,-0.3442735 -8e-6,-0.4761765 l -1.112291,-1.1122909 0.755001,1.27e-5 c 0.186536,3e-6 0.336715,-0.1501767 0.336712,-0.3367127 l -5e-6,-0.3366718 c -3e-6,-0.18653598 -0.150187,-0.3367198 -0.336724,-0.33672357 l -2.142656,-8.273e-5 -4.7e-5,4.759e-5 c -0.01162,2.121e-5 -0.02313,5.7346e-4 -0.03446,0.001719 -1.7e-5,9.1e-7 -4.1e-5,5.473e-5 -4.9e-5,4.695e-5 -0.01132,0.001138 -0.02252,0.00279 -0.03348,0.005025 -1.7e-5,4.1e-6 -4.1e-5,5.465e-5 -4.8e-5,4.758e-5 -0.01098,0.002213 -0.02169,0.004969 -0.03223,0.008228 -1.7e-5,6.01e-6 -1.7e-5,3.09e-5 -4.7e-5,4.759e-5 -0.01058,0.003224 -0.02089,0.007032 -0.03097,0.0112543 -1.8e-5,8.13e-6 -1.8e-5,2.941e-5 -4.7e-5,4.752e-5 -0.01008,0.004279 -0.01988,0.008991 -0.02944,0.0141789 -0.0095,0.005138 -0.01879,0.0107303 -0.02774,0.0167118 -1.8e-5,1.195e-5 -2.1e-5,2.673e-5 -4.8e-5,4.759e-5 -0.009,0.005996 -0.01758,0.0124889 -0.02585,0.0193479 -0.0083,0.006887 -0.01634,0.0140771 -0.02396,0.0217004 -0.06083,0.060855 -0.09834,0.1449856 -0.09835,0.23822658 l -4.8e-5,4.76e-5 7.9e-5,2.1426527 c 3e-6,0.1865359 0.150188,0.3367207 0.336725,0.3367242 l 0.33666,-8e-6 c 0.186535,3.4e-6 0.336715,-0.1501767 0.336712,-0.3367124 l 4.6e-5,-0.754942 1.112291,1.112291 c 0.131903,0.131903 0.344279,0.1319069 0.476177,8.5e-6 z" />
    <path
       id="path76489-7"
       style="display:inline;fill:#ffffff;fill-opacity:1;stroke:#ffffff;stroke-width:0;stroke-linecap:square;stroke-linejoin:miter;stroke-miterlimit:4;stroke-dasharray:none;stroke-opacity:1"
       d="m 6.1816428,0.26458389 c -0.1865329,0 -0.3367023,0.1501743 -0.3367023,0.3367134 V 2.1743143 L 5.3110835,1.6404395 c -0.1318988,-0.131903 -0.3442849,-0.131903 -0.4761836,0 L 4.596841,1.8785064 c -0.1318986,0.131903 -0.1318986,0.3442964 0,0.4761994 l 1.5150279,1.5151446 h 6.73e-5 c 0.00823,0.00822 0.016761,0.015946 0.025581,0.023148 1.23e-5,1.05e-5 6.74e-5,-9.9e-6 6.74e-5,5e-7 0.00881,0.0072 0.017896,0.01395 0.027227,0.020124 1.48e-5,9.6e-6 6.73e-5,-9.3e-6 6.73e-5,0 0.00933,0.00617 0.018847,0.011825 0.028606,0.016968 1.65e-5,8.8e-6 3.37e-5,-9.3e-6 6.73e-5,0 0.00976,0.00515 0.019745,0.00983 0.029856,0.013942 1.85e-5,7.5e-6 3.36e-5,-7.5e-6 6.72e-5,0 0.010152,0.00413 0.020415,0.00769 0.030842,0.010786 0.010366,0.00309 0.020875,0.0057 0.031434,0.00775 2.09e-5,4.3e-6 3.38e-5,-3.7e-6 6.73e-5,0 0.01058,0.00205 0.021262,0.00358 0.031962,0.0046 0.01074,0.00104 0.021508,0.00157 0.032289,0.00157 0.086045,-1.7e-5 0.1720606,-0.032975 0.2379933,-0.09891 l 6.73e-5,6e-7 1.5150284,-1.5151403 c 0.1318986,-0.1319029 0.1318989,-0.3442961 0,-0.4761994 L 7.8650985,1.6404399 c -0.1318982,-0.1319029 -0.344285,-0.1319029 -0.4761833,0 L 6.855058,2.174315 V 0.60129799 c 0,-0.1865391 -0.1501695,-0.3367135 -0.336702,-0.3367135 z" />
    <path
       id="path76489-7-3"
       style="display:inline;fill:#ffffff;fill-opacity:1;stroke:#ffffff;stroke-width:0;stroke-linecap:square;stroke-linejoin:miter;stroke-miterlimit:4;stroke-dasharray:none;stroke-opacity:1"
       d="m 10.751694,3.9687389 c 0.186533,0 0.336702,-0.1501743 0.336702,-0.3367134 V 2.0590084 l 0.533857,0.5338748 c 0.131899,0.131903 0.344285,0.131903 0.476183,0 l 0.238059,-0.2380669 c 0.131899,-0.1319029 0.131899,-0.3442964 0,-0.4761993 L 10.821468,0.36347242 h -6.8e-5 c -0.0082,-0.00822 -0.01676,-0.015946 -0.02558,-0.023148 -1.2e-5,-1.05e-5 -6.7e-5,9.9e-6 -6.7e-5,-5e-7 -0.0088,-0.0072 -0.0179,-0.01395 -0.02723,-0.020124 -1.5e-5,-9.6e-6 -6.7e-5,9.3e-6 -6.7e-5,0 -0.0093,-0.00617 -0.01885,-0.011825 -0.02861,-0.016968 -1.7e-5,-8.8e-6 -3.4e-5,9.3e-6 -6.8e-5,0 -0.0098,-0.00515 -0.01975,-0.00983 -0.02986,-0.013942 -1.8e-5,-7.5e-6 -3.3e-5,7.5e-6 -6.7e-5,0 -0.01015,-0.00413 -0.02041,-0.00769 -0.03084,-0.010786 -0.01037,-0.00309 -0.02088,-0.0057 -0.03143,-0.00775 -2.1e-5,-4.3e-6 -3.4e-5,3.7e-6 -6.7e-5,0 -0.01058,-0.00205 -0.02126,-0.00358 -0.03196,-0.0046 -0.01074,-0.00104 -0.02151,-0.00157 -0.03229,-0.00157 -0.08605,1.7e-5 -0.172061,0.032975 -0.237994,0.09891 l -6.7e-5,-6e-7 -1.5150284,1.51514028 c -0.131899,0.1319029 -0.131899,0.344296 0,0.4761993 l 0.238063,0.2380499 c 0.131898,0.131903 0.344285,0.131903 0.476183,0 L 10.078278,2.0590077 v 1.5730171 c 0,0.1865391 0.15017,0.3367135 0.336702,0.3367135 z" />
    <path
       id="path76489-7-3-8"
       style="display:inline;fill:#ffffff;fill-opacity:1;stroke:#ffffff;stroke-width:0;stroke-linecap:square;stroke-linejoin:miter;stroke-miterlimit:4;stroke-dasharray:none;stroke-opacity:1"
       d="m 12.964584,2.2850209 c 0,0.186533 0.150174,0.336702 0.336713,0.336702 h 1.573018 l -0.533875,0.533857 c -0.131903,0.131899 -0.131903,0.344285 0,0.476183 l 0.238067,0.238059 c 0.131903,0.131899 0.344296,0.131899 0.476199,0 l 1.515144,-1.515027 v -6.8e-5 c 0.0082,-0.0082 0.01595,-0.01676 0.02315,-0.02558 1.1e-5,-1.2e-5 -9e-6,-6.7e-5 1e-6,-6.7e-5 0.0072,-0.0088 0.01395,-0.0179 0.02012,-0.02723 10e-6,-1.5e-5 -9e-6,-6.7e-5 0,-6.7e-5 0.0062,-0.0093 0.01182,-0.01885 0.01697,-0.02861 9e-6,-1.7e-5 -9e-6,-3.4e-5 0,-6.8e-5 0.0052,-0.0098 0.0098,-0.01975 0.01394,-0.02986 7e-6,-1.8e-5 -8e-6,-3.3e-5 0,-6.7e-5 0.0041,-0.01015 0.0077,-0.02041 0.01079,-0.03084 0.0031,-0.01037 0.0057,-0.02088 0.0078,-0.03143 4e-6,-2.1e-5 -4e-6,-3.4e-5 0,-6.7e-5 0.0021,-0.01058 0.0036,-0.02126 0.0046,-0.03196 10e-4,-0.01074 0.0016,-0.02151 0.0016,-0.03229 -1.7e-5,-0.08605 -0.03298,-0.172061 -0.09891,-0.237994 l 10e-7,-6.7e-5 -1.515141,-1.51502899 c -0.131903,-0.131899 -0.344296,-0.131899 -0.476199,0 l -0.23805,0.238063 c -0.131903,0.131898 -0.131903,0.344285 0,0.47618299 l 0.533875,0.533858 H 13.30138 c -0.186539,0 -0.336713,0.15017 -0.336713,0.336702 z" />
    <rect
       style="display:inline;fill:#ffffff;fill-opacity:1;stroke:#ffffff;stroke-width:0;stroke-linecap:square;stroke-linejoin:miter;stroke-miterlimit:4;stroke-dasharray:none;stroke-opacity:1"
       id="rect70533"
       width="2.1166666"
       height="2.1166666"
       x="10.915541"
       y="13.909027"
       transform="matrix(0.707096,-0.70711756,0.707096,0.70711756,0,0)"
       ry="0.33072916"
       rx="0.33072916" />
    <path
       style="display:inline;fill:#ffffff;fill-opacity:1;stroke:#ffffff;stroke-width:0;stroke-linecap:butt;stroke-linejoin:miter;stroke-dasharray:none;stroke-opacity:1"
       d="M 29.897917,3.6656817 V 0.80337172 h 0.505113 l 0.673484,0.67348498 1.212269,-1.21227298 h 0.505119 v 0.23572 l 0.572459,0.57246198 h 0.235722 v 0.505114 l -1.212276,1.212272 0.673483,0.673485 v 0.505113 h -2.862305 z"
       id="path151382"
       sodipodi:nodetypes="ccccccccccccccc"
       inkscape:path-effect="#path-effect151386-9"
       inkscape:original-d="M 30.200985,3.9687497 29.897917,3.6656817 V 0.80337172 h 0.505113 l 0.673484,0.67348498 1.212269,-1.21227298 h 0.505119 v 0.23572 l 0.572459,0.57246198 h 0.235722 v 0.505114 l -1.212276,1.212272 0.673483,0.673485 v 0.505113 z" />
    <path
       style="display:inline;fill:#ffffff;fill-opacity:1;stroke:#ffffff;stroke-width:0;stroke-linecap:butt;stroke-linejoin:miter;stroke-dasharray:none;stroke-opacity:1"
       d="m 46.302083,0.5676517 v 2.86231 H 45.79697 l -0.673484,-0.673485 -1.212269,1.212273 h -0.505119 v -0.23572 l -0.572459,-0.572462 h -0.235722 v -0.505114 l 1.212276,-1.212272 -0.673483,-0.673485 v -0.505113 l 2.862305,0 z"
       id="path151382-6"
       sodipodi:nodetypes="ccccccccccccccc"
       inkscape:path-effect="#path-effect151386-9-8"
       inkscape:original-d="m 45.999015,0.2645837 0.303068,0.303068 v 2.86231 H 45.79697 l -0.673484,-0.673485 -1.212269,1.212273 h -0.505119 v -0.23572 l -0.572459,-0.572462 h -0.235722 v -0.505114 l 1.212276,-1.212272 -0.673483,-0.673485 v -0.505113 z" />
    <path
       style="display:inline;fill:#ffffff;fill-opacity:1;stroke:#ffffff;stroke-width:0;stroke-linecap:butt;stroke-linejoin:miter;stroke-dasharray:none;stroke-opacity:1"
       d="m 34.434318,0.26458382 h 2.86231 v 0.50511253 l -0.673485,0.67348455 1.212273,1.212269 v 0.5051187 h -0.23572 l -0.572462,0.572459 v 0.235722 H 36.52212 L 35.309848,2.7564736 34.636363,3.4299564 H 34.13125 V 0.56765151 Z"
       id="path151382-0"
       sodipodi:nodetypes="ccccccccccccccc"
       inkscape:path-effect="#path-effect151386-9-2"
       inkscape:original-d="m 34.13125,0.56765151 0.303068,-0.30306769 h 2.86231 v 0.50511253 l -0.673485,0.67348455 1.212273,1.212269 v 0.5051187 h -0.23572 l -0.572462,0.572459 v 0.235722 H 36.52212 L 35.309848,2.7564736 34.636363,3.4299564 H 34.13125 Z" />
    <path
       style="display:inline;fill:#ffffff;fill-opacity:1;stroke:#ffffff;stroke-width:0;stroke-linecap:butt;stroke-linejoin:miter;stroke-dasharray:none;stroke-opacity:1"
       d="m 50.232348,3.9687497 h -2.86231 v -0.505113 l 0.673485,-0.673484 -1.212273,-1.212269 v -0.505119 h 0.23572 L 47.639432,0.50030571 V 0.2645837 h 0.505114 l 1.212272,1.212276 0.673485,-0.67348299 h 0.505113 V 3.6656817 Z"
       id="path151382-62"
       sodipodi:nodetypes="ccccccccccccccc"
       inkscape:path-effect="#path-effect151386-9-0"
       inkscape:original-d="m 50.535416,3.6656817 -0.303068,0.303068 h -2.86231 v -0.505113 l 0.673485,-0.673484 -1.212273,-1.212269 v -0.505119 h 0.23572 L 47.639432,0.50030571 V 0.2645837 h 0.505114 l 1.212272,1.212276 0.673485,-0.67348299 h 0.505113 z" />
    <path
       id="rect47661"
       style="fill:#ffffff;fill-opacity:1;stroke:#ffffff;stroke-width:0;stroke-linecap:square;stroke-dasharray:none;stop-color:#000000"
       d="m 39.075644,0.26458383 -0.71106,0.7105509 V 3.2581995 l 0.71055,0.7105509 h 2.28306 l 0.71055,-0.7110677 V 0.97565153 l -0.71106,-0.7110677 z" />
  </g>
</svg>
