<?xml version="1.0" encoding="UTF-8" standalone="no"?>
<!-- Created with Inkscape (http://www.inkscape.org/) -->

<svg
   width="998"
   height="150"
   viewBox="0 0 264.05443 39.687524"
   version="1.1"
   id="svg5"
   inkscape:version="1.4 (86a8ad7, 2024-10-11)"
   sodipodi:docname="logo.svg"
   inkscape:export-filename="logo.png"
   inkscape:export-xdpi="96"
   inkscape:export-ydpi="96"
   xmlns:inkscape="http://www.inkscape.org/namespaces/inkscape"
   xmlns:sodipodi="http://sodipodi.sourceforge.net/DTD/sodipodi-0.dtd"
   xmlns="http://www.w3.org/2000/svg"
   xmlns:svg="http://www.w3.org/2000/svg">
  <sodipodi:namedview
     id="namedview7"
     pagecolor="#505050"
     bordercolor="#ffffff"
     borderopacity="1"
     inkscape:showpageshadow="0"
     inkscape:pageopacity="0"
     inkscape:pagecheckerboard="1"
     inkscape:deskcolor="#505050"
     inkscape:document-units="px"
     showgrid="true"
     inkscape:zoom="1.4142136"
     inkscape:cx="445.12371"
     inkscape:cy="-78.842404"
     inkscape:window-width="3840"
     inkscape:window-height="1529"
     inkscape:window-x="1432"
     inkscape:window-y="487"
     inkscape:window-maximized="1"
     inkscape:current-layer="layer1"
     showguides="true">
    <inkscape:grid
       type="xygrid"
       id="grid132"
       spacingx="8.4666666"
       spacingy="8.4666666"
       empspacing="4"
       color="#ffffff"
       opacity="0.1254902"
       empcolor="#ffffff"
       empopacity="0.25098039"
       enabled="false"
       originx="0"
       originy="0"
       units="px" />
    <sodipodi:guide
       position="185.74167,13.93622"
       orientation="0,-1"
       id="guide420"
       inkscape:locked="false" />
  </sodipodi:namedview>
  <defs
     id="defs2" />
  <g
     inkscape:label="Layer 1"
     inkscape:groupmode="layer"
     id="layer1">
    <path
       id="text193"
       style="font-style:normal;font-weight:normal;font-size:10.5833px;line-height:1.25;font-family:sans-serif;letter-spacing:0px;word-spacing:0px;fill:#ffffff;fill-opacity:1;stroke:none;stroke-width:0.264583"
       d="M 182.9218 3.0892196 L 182.9218 28.841673 L 185.70871 28.841673 L 185.70871 17.835101 C 185.73223 16.800287 185.991 15.882959 186.48489 15.083329 C 187.0023 14.2837 187.69623 13.660526 188.56642 13.213674 C 189.46012 12.743304 190.47146 12.50829 191.60034 12.50829 C 193.12905 12.50829 194.24601 12.955075 194.95156 13.848778 C 195.68064 14.742482 196.04504 16.141976 196.04504 18.046975 L 196.04504 28.841673 L 198.83195 28.841673 L 198.83195 17.552948 C 198.83195 15.012949 198.30278 13.143427 197.24445 11.943983 C 196.18612 10.744539 194.53999 10.144609 192.30573 10.144609 C 189.36591 10.144609 187.19062 11.08518 185.77951 12.966661 L 185.70871 12.966661 L 185.70871 3.0892196 L 182.9218 3.0892196 z M 168.59915 4.4999873 L 168.59915 10.497559 L 164.1188 10.497559 L 164.1188 12.861241 L 168.59915 12.861241 L 168.59915 23.655939 C 168.59915 25.631494 169.03431 27.054231 169.90449 27.924416 C 170.7982 28.771082 172.24469 29.194624 174.24377 29.194624 C 175.5608 29.194624 176.88954 28.994475 178.23009 28.59466 L 177.91228 26.195838 C 176.97154 26.548616 175.92534 26.725005 174.77293 26.725005 C 173.50294 26.725005 172.62099 26.45461 172.1271 25.913684 C 171.63321 25.34924 171.38606 24.361666 171.38606 22.950555 L 171.38606 12.861241 L 178.19443 12.861241 L 178.19443 10.497559 L 171.38606 10.497559 L 171.38606 4.4999873 L 168.59915 4.4999873 z M 7.5948913 10.139958 C 5.1960032 10.139958 3.3381035 10.927899 2.0210669 12.50364 C 0.72754879 14.055861 0.080615299 16.26654 0.080615299 19.135798 C 0.080615299 22.005057 0.72754879 24.227873 2.0210669 25.803614 C 3.3381035 27.355835 5.1960032 28.131639 7.5948913 28.131639 C 8.7472984 28.131639 9.7586322 27.943628 10.628817 27.567332 C 11.522521 27.191035 12.369086 26.591105 13.168716 25.767957 L 13.239513 25.767957 L 13.239513 26.544137 C 13.239513 28.613766 12.862974 30.084023 12.110382 30.954208 C 11.381308 31.824393 10.123339 32.259555 8.335932 32.259555 C 7.230562 32.259555 6.0782199 32.106409 4.8787759 31.800668 C 3.6793318 31.518446 2.6442382 31.154046 1.7740533 30.707194 L 1.1389495 35.010811 C 2.0091344 35.5047 3.1382334 35.89286 4.5258256 36.175082 C 5.9369362 36.457304 7.3950544 36.598312 8.9002391 36.598312 C 15.720607 36.598312 19.130631 33.246913 19.130631 26.544137 L 19.130631 10.492908 L 13.556806 10.492908 L 13.486526 12.50364 L 13.415729 12.50364 C 11.839989 10.927899 9.8997054 10.139958 7.5948913 10.139958 z M 37.122312 10.139958 C 35.593608 10.139958 34.147629 10.457872 32.783555 11.092872 C 31.443 11.704353 30.266898 12.597922 29.255602 13.773847 L 29.184805 13.773847 L 29.149665 10.492908 L 23.505044 10.492908 L 23.505044 28.837539 L 29.431819 28.837539 L 29.431819 20.723299 C 29.431819 19.664966 29.772976 18.700635 30.455013 17.83045 C 31.160568 16.960266 32.089518 16.278468 33.241925 15.784579 C 34.417851 15.267172 35.711201 15.008398 37.122312 15.008398 L 37.122312 10.139958 z M 47.564577 10.139958 C 44.460133 10.139958 42.073065 10.963281 40.403251 12.609576 C 38.756955 14.232354 37.933632 16.58404 37.933632 19.664965 C 37.933632 22.74589 38.756955 25.109715 40.403251 26.756011 C 42.073065 28.378788 44.460133 29.189973 47.564577 29.189973 C 50.692539 29.189973 53.079607 28.378788 54.725902 26.756011 C 56.395717 25.109715 57.230661 22.74589 57.230661 19.664965 C 57.230661 16.58404 56.395717 14.232354 54.725902 12.609576 C 53.079607 10.963281 50.692539 10.139958 47.564577 10.139958 z M 69.225287 10.139958 C 66.120844 10.139958 63.733776 10.963281 62.063962 12.609576 C 60.417666 14.232354 59.594343 16.58404 59.594343 19.664965 C 59.594343 22.74589 60.417666 25.109715 62.063962 26.756011 C 63.733776 28.378788 66.120844 29.189973 69.225287 29.189973 C 72.353249 29.189973 74.740317 28.378788 76.386613 26.756011 C 78.056427 25.109715 78.891372 22.74589 78.891372 19.664965 C 78.891372 16.58404 78.056427 14.232354 76.386613 12.609576 C 74.740317 10.963281 72.353249 10.139958 69.225287 10.139958 z M 109.97115 10.139958 C 107.07838 10.139958 104.79694 10.98704 103.12712 12.680373 C 101.48083 14.373706 100.65802 16.701633 100.65802 19.664965 C 100.65802 22.722372 101.56321 25.074575 103.37413 26.720871 C 105.20858 28.367167 107.83118 29.189973 111.24136 29.189973 C 112.44081 29.189973 113.62853 29.084346 114.80445 28.872679 C 116.0039 28.684531 117.02685 28.437379 117.87352 28.131639 L 117.23842 23.828022 C 116.41527 24.133763 115.41556 24.380398 114.23963 24.568546 C 113.08722 24.756694 112.01726 24.851216 111.02949 24.851216 C 109.57134 24.851216 108.47762 24.592443 107.74855 24.075036 C 107.01947 23.557628 106.58431 22.734305 106.4432 21.605417 L 118.75512 21.605417 C 118.80216 21.417269 118.83754 21.08825 118.86106 20.617879 C 118.88458 20.123991 118.8962 19.688828 118.8962 19.312532 C 118.8962 16.396236 118.10877 14.138038 116.53303 12.53878 C 114.98081 10.939521 112.79337 10.139958 109.97115 10.139958 z M 132.8628 10.144609 C 131.47521 10.144609 130.09947 10.285617 128.7354 10.567839 C 127.39484 10.826542 126.13636 11.190943 124.96043 11.661313 L 125.45446 13.919575 C 127.73575 12.978835 130.09906 12.50829 132.54499 12.50829 C 133.69739 12.50829 134.6031 12.649299 135.26162 12.931521 C 135.92014 13.190224 136.37854 13.64863 136.63725 14.307149 C 136.91947 14.965667 137.06048 15.882995 137.06048 17.058921 L 134.16815 17.058921 C 130.96963 17.058921 128.5118 17.635092 126.79495 18.787499 C 125.07809 19.916387 124.21939 21.539273 124.21939 23.655939 C 124.21939 25.349272 124.74856 26.701763 125.80689 27.713059 C 126.88874 28.700837 128.359 29.194624 130.21696 29.194624 C 131.60455 29.194624 132.94491 28.93585 134.23843 28.418443 C 135.53194 27.877517 136.48465 27.183581 137.09613 26.336915 L 137.16641 26.336915 L 137.20207 28.841673 L 139.88305 28.841673 L 139.88305 17.305934 C 139.88305 15.518527 139.65965 14.107412 139.2128 13.072598 C 138.76595 12.037783 138.02501 11.296844 136.9902 10.849992 C 135.9789 10.379622 134.60317 10.144609 132.8628 10.144609 z M 211.67355 10.144609 C 208.85133 10.144609 206.65228 10.979553 205.07654 12.649367 C 203.52431 14.319181 202.74799 16.659247 202.74799 19.669616 C 202.74799 22.679986 203.52431 25.020051 205.07654 26.689865 C 206.65228 28.359679 208.85133 29.194624 211.67355 29.194624 C 214.49578 29.194624 216.68269 28.359679 218.23492 26.689865 C 219.81066 25.020051 220.5986 22.679986 220.5986 19.669616 C 220.5986 16.659247 219.81066 14.319181 218.23492 12.649367 C 216.68269 10.979553 214.49578 10.144609 211.67355 10.144609 z M 236.26174 10.144609 C 234.47433 10.144609 232.8282 10.521147 231.32302 11.273739 C 229.81783 12.026332 228.66549 13.049287 227.86586 14.342805 L 227.79506 14.342805 L 227.79506 10.497559 L 225.07895 10.497559 L 225.07895 28.841673 L 227.901 28.841673 L 227.901 19.669616 C 227.901 18.35258 228.2654 17.164856 228.99447 16.106523 C 229.74707 15.04819 230.7584 14.201624 232.0284 13.566625 C 233.2984 12.931625 234.70952 12.614227 236.26174 12.614227 L 236.26174 10.144609 z M 80.019986 10.492908 L 85.664607 28.837539 L 93.884267 28.837539 L 99.528888 10.492908 L 93.390757 10.492908 L 89.792007 25.097713 L 89.721727 25.097713 L 86.158634 10.492908 L 80.019986 10.492908 z M 144.68069 10.497559 L 144.68069 21.786285 C 144.68069 24.326284 145.1861 26.195805 146.19739 27.395249 C 147.23221 28.594693 148.83185 29.194624 150.99556 29.194624 C 153.86481 29.194624 156.00473 28.254052 157.41584 26.372572 L 157.48664 26.372572 L 157.52178 28.841673 L 160.20275 28.841673 L 160.20275 10.497559 L 157.41584 10.497559 L 157.41584 21.539271 C 157.41584 22.550567 157.16921 23.456274 156.67532 24.255903 C 156.20495 25.055533 155.53425 25.690328 154.66407 26.160698 C 153.8174 26.60755 152.84145 26.830942 151.73608 26.830942 C 150.27793 26.830942 149.19635 26.384158 148.4908 25.490454 C 147.80876 24.596751 147.4676 23.197257 147.4676 21.292257 L 147.4676 10.497559 L 144.68069 10.497559 z M 211.67355 12.50829 C 213.62559 12.50829 215.14233 13.131464 216.22418 14.377945 C 217.30604 15.600908 217.84683 17.364802 217.84683 19.669616 C 217.84683 21.950912 217.30604 23.714806 216.22418 24.961287 C 215.14233 26.207768 213.62559 26.830942 211.67355 26.830942 C 209.72152 26.830942 208.20426 26.207768 207.12241 24.961287 C 206.04056 23.714806 205.49977 21.950912 205.49977 19.669616 C 205.49977 17.364802 206.04056 15.600908 207.12241 14.377945 C 208.20426 13.131464 209.72152 12.50829 211.67355 12.50829 z M 109.97115 14.126281 C 111.00597 14.126281 111.80553 14.432057 112.36998 15.043538 C 112.93442 15.65502 113.27558 16.607729 113.39317 17.901247 L 106.47886 17.901247 C 106.71404 15.384767 107.87801 14.126281 109.97115 14.126281 z M 47.564577 14.479231 C 50.081057 14.479231 51.339543 16.207744 51.339543 19.664965 C 51.339543 23.122186 50.081057 24.851216 47.564577 24.851216 C 45.071615 24.851216 43.825267 23.122186 43.825267 19.664965 C 43.825267 16.207744 45.071615 14.479231 47.564577 14.479231 z M 69.225287 14.479231 C 71.741768 14.479231 72.999737 16.207744 72.999737 19.664965 C 72.999737 23.122186 71.741768 24.851216 69.225287 24.851216 C 66.732325 24.851216 65.485978 23.122186 65.485978 19.664965 C 65.485978 16.207744 66.732325 14.479231 69.225287 14.479231 z M 9.5704829 14.726245 C 10.628816 14.726245 11.499142 15.008261 12.181178 15.572705 C 12.886734 16.13715 13.239513 16.854846 13.239513 17.72503 L 13.239513 20.547083 C 13.239513 21.417268 12.886734 22.134447 12.181178 22.698891 C 11.499142 23.263335 10.628816 23.545868 9.5704829 23.545868 C 8.3945574 23.545868 7.477229 23.16933 6.8187107 22.416738 C 6.1601924 21.640627 5.8311733 20.546909 5.8311733 19.135798 C 5.8311733 17.724688 6.1601924 16.643108 6.8187107 15.890516 C 7.477229 15.114405 8.3945574 14.726245 9.5704829 14.726245 z M 134.52058 19.246386 L 137.06048 19.246386 L 137.06048 22.209515 C 137.06048 23.056181 136.79008 23.844123 136.24916 24.573197 C 135.73175 25.278752 135.02619 25.843302 134.13249 26.266635 C 133.23879 26.689968 132.23959 26.901739 131.13422 26.901739 C 129.81718 26.901739 128.79371 26.595963 128.06464 25.984481 C 127.35908 25.349481 127.0063 24.490777 127.0063 23.408926 C 127.0063 20.633742 129.51114 19.246386 134.52058 19.246386 z " />
    <path
       id="path76489"
       style="display:inline;fill:#a11800;fill-opacity:1;stroke:#ffffff;stroke-width:0.529167;stroke-linecap:square;stroke-linejoin:miter;stroke-miterlimit:4;stroke-dasharray:none;stroke-opacity:1"
       d="m 243.36846,28.733679 c 1.03647,1.03647 2.7053,1.03647 3.74177,0 l 8.74019,-8.74018 -1e-5,5.93276 c 0,1.46579 1.18013,2.64591 2.64592,2.64591 h 2.64554 c 1.46579,0 2.64592,-1.18013 2.64592,-2.64592 l 3.7e-4,-16.8368802 -3.8e-4,-3.7e-4 c 0,-0.0915 -0.005,-0.18173 -0.0135,-0.27077 0,-1.3e-4 -4.3e-4,-3.1e-4 -3.6e-4,-3.8e-4 -0.009,-0.089 -0.0219,-0.17695 -0.0395,-0.26308 -4e-5,-1.4e-4 -4.3e-4,-3.2e-4 -3.8e-4,-3.8e-4 -0.0175,-0.0861 -0.039,-0.17041 -0.0647,-0.25323 -4e-5,-1.4e-4 -2.4e-4,-1.3e-4 -3.7e-4,-3.7e-4 -0.0257,-0.0828 -0.0551,-0.1643 -0.0884,-0.24336 -5e-5,-1.4e-4 -2.2e-4,-1.5e-4 -3.7e-4,-3.8e-4 -0.0335,-0.0793 -0.0707,-0.15614 -0.11148,-0.23126 -0.0405,-0.0747 -0.0842,-0.14775 -0.13153,-0.2178 -1e-4,-1.5e-4 -2.2e-4,-1.7e-4 -3.8e-4,-3.7e-4 -0.0474,-0.0702 -0.0983,-0.13802 -0.15199,-0.20319 -0.054,-0.0653 -0.11075,-0.12828 -0.17065,-0.18818 -0.4782,-0.47802 -1.13927,-0.77284 -1.87198,-0.77284 l -3.7e-4,-3.8e-4 -16.83689,3.7e-4 c -1.46579,0 -2.64591,1.18012 -2.64592,2.64592 l 1e-5,2.6455402 c 0,1.46579 1.18012,2.64592 2.64591,2.64592 h 5.93276 l -8.74019,8.74019 c -1.03647,1.03647 -1.03646,2.7053 1e-5,3.74177 z" />
    <path
       id="path123842-0"
       style="display:inline;fill:#1835b6;fill-opacity:0;stroke:#ffffff;stroke-width:1.05833;stroke-linecap:square;stroke-linejoin:miter;stroke-miterlimit:4;stroke-dasharray:none;stroke-opacity:1"
       d="m 243.64698,28.620564 c 0.76186,0.716488 2.00813,0.822915 2.87895,0.24267 0.47366,-0.322539 0.83111,-0.782276 1.24883,-1.169788 2.78045,-2.779729 5.5609,-5.559457 8.34135,-8.339185 0.004,2.240975 -0.007,4.482277 0.005,6.723052 0.0487,1.050066 0.8797,1.995782 1.91491,2.179142 0.56491,0.08936 1.1409,0.02513 1.71046,0.04462 0.58777,-0.01496 1.17907,0.03233 1.7645,-0.02848 1.0358,-0.143981 1.90038,-1.047369 1.99542,-2.089166 0.0338,-0.84639 0.005,-1.695222 0.0146,-2.54255 -0.002,-4.891671 0.005,-9.783466 -0.003,-14.6750644 -0.0385,-1.0403716 -0.84202,-1.9883373 -1.86303,-2.1946017 -0.56823,-0.1065491 -1.1509,-0.034289 -1.72537,-0.055493 -5.24734,0.00206 -10.49476,-0.00367 -15.74204,0.00326 -1.04342,0.03457 -1.9954,0.8403786 -2.20175,1.8632887 -0.10591,0.554176 -0.0341,1.1230076 -0.0552,1.6835014 0.0142,0.605477 -0.0299,1.214085 0.0251,1.817532 0.13122,1.045599 1.03982,1.92411 2.08948,2.020592 0.81272,0.03564 1.62806,0.0054 2.44178,0.01544 1.46425,-4e-6 2.92852,-2e-6 4.39278,-1e-6 -3.08949,3.091512 -6.18475,6.177494 -9.27064,9.272464 -0.71544,0.761615 -0.82077,2.006682 -0.24104,2.876466 0.32292,0.473326 0.78258,0.830812 1.17026,1.248392 0.37027,0.367179 0.73473,0.740343 1.10854,1.103882 z" />
  </g>
</svg>
